<?xml version="1.0" standalone="no"?>
<!DOCTYPE svg PUBLIC "-//W3C//DTD SVG 20010904//EN"
 "http://www.w3.org/TR/2001/REC-SVG-20010904/DTD/svg10.dtd">
<svg version="1.0" xmlns="http://www.w3.org/2000/svg"
 width="512.000000pt" height="512.000000pt" viewBox="0 0 512.000000 512.000000"
 preserveAspectRatio="xMidYMid meet">

<g transform="translate(0.000000,512.000000) scale(0.100000,-0.100000)"
fill="#000000" stroke="none">
<path d="M1589 3985 c-145 -29 -289 -111 -391 -224 -37 -41 -118 -172 -268
-433 -117 -205 -223 -386 -234 -401 -35 -48 -94 -74 -266 -117 -99 -25 -188
-54 -223 -72 -99 -53 -171 -151 -197 -268 -8 -39 -11 -155 -8 -390 l3 -335 32
-67 c44 -93 100 -151 191 -196 l76 -37 196 -3 196 -4 28 -50 c59 -104 181
-198 316 -244 77 -26 244 -26 320 0 137 47 232 118 300 224 l45 71 855 0 855
1 29 -51 c59 -105 180 -199 316 -245 77 -26 244 -26 320 0 136 47 232 118 300
224 l45 69 196 4 195 4 76 37 c91 45 147 103 191 196 l32 67 3 195 c3 120 -1
224 -8 270 -32 200 -153 386 -322 493 -108 69 -175 90 -427 132 -160 27 -197
40 -244 84 -16 14 -125 196 -244 404 -153 267 -232 395 -271 437 -105 117
-246 196 -398 226 -106 20 -1514 19 -1615 -1z m1631 -166 c100 -35 166 -75
236 -144 64 -64 89 -103 284 -444 117 -206 227 -389 243 -408 76 -86 143 -114
375 -153 187 -31 231 -43 303 -82 l44 -23 -93 -5 c-85 -5 -96 -7 -114 -30 -17
-21 -20 -35 -15 -93 6 -91 49 -177 122 -246 80 -76 148 -104 264 -109 l93 -4
-3 -152 c-4 -144 -5 -153 -32 -199 -35 -60 -93 -102 -158 -116 -27 -6 -104
-11 -169 -11 l-120 0 0 78 c0 154 -49 277 -154 389 -131 141 -311 202 -498
170 -125 -22 -206 -64 -298 -157 -120 -119 -170 -237 -170 -397 l0 -83 -800 0
-800 0 0 78 c0 154 -49 277 -154 389 -131 141 -311 202 -498 170 -125 -22
-206 -64 -298 -157 -120 -120 -170 -237 -170 -398 l0 -84 -148 3 c-135 4 -152
6 -197 30 -62 32 -110 93 -124 159 -6 28 -11 105 -11 170 l0 120 98 0 c130 0
127 -2 181 212 47 191 48 207 22 239 -17 22 -29 24 -123 29 l-103 5 36 23 c20
12 114 42 209 67 187 49 251 77 315 142 28 29 116 173 260 426 192 335 227
390 285 448 86 87 195 142 320 163 14 2 360 3 770 2 647 -1 751 -3 790 -17z
m-2930 -1426 c0 -5 -7 -41 -17 -80 l-17 -73 -48 0 -48 0 0 80 0 80 65 0 c36 0
65 -3 65 -7z m4611 -53 c15 -30 30 -66 34 -79 7 -24 7 -24 -57 -19 -69 6 -117
25 -161 67 -26 23 -57 71 -57 86 0 3 48 4 107 3 l107 -3 27 -55z m-3582 -286
c104 -33 192 -112 239 -212 38 -80 43 -212 12 -294 -35 -93 -44 -100 -131
-101 -40 0 -84 3 -97 7 -23 8 -23 9 16 42 56 48 82 106 82 182 0 146 -95 242
-240 242 -81 0 -134 -23 -182 -79 -34 -40 -37 -41 -43 -20 -13 39 -10 166 3
182 19 22 110 59 167 66 61 9 116 4 174 -15z m2720 0 c104 -33 192 -112 239
-212 38 -80 43 -212 12 -294 -36 -96 -43 -101 -142 -101 -111 0 -120 6 -70 49
56 48 82 106 82 182 0 145 -95 241 -238 242 -95 0 -146 -26 -203 -103 l-27
-37 -12 70 c-6 38 -9 88 -5 110 6 37 11 42 70 71 96 47 195 55 294 23z m-2805
-305 c58 -27 55 -115 -5 -139 -63 -26 -125 36 -100 99 19 44 60 60 105 40z
m2720 0 c58 -27 55 -115 -5 -139 -63 -26 -125 36 -100 99 19 44 60 60 105 40z"/>
<path d="M1573 3740 c-63 -22 -129 -66 -171 -114 -54 -62 -442 -719 -442 -749
0 -16 10 -38 25 -52 l24 -25 631 0 631 0 24 25 25 24 0 431 0 431 -25 24 -24
25 -323 -1 c-288 0 -329 -2 -375 -19z m587 -460 l0 -320 -485 0 c-267 0 -485
3 -485 6 0 20 320 536 352 566 61 60 99 67 376 67 l242 1 0 -320z"/>
<path d="M2505 3735 l-25 -24 0 -431 0 -431 25 -24 24 -25 631 0 631 0 24 25
c15 14 25 36 25 52 0 32 -203 379 -231 393 -29 16 -64 12 -93 -11 -42 -33 -35
-70 34 -187 33 -55 60 -104 60 -107 0 -3 -218 -5 -485 -5 l-485 0 0 321 0 320
263 -3 c233 -3 266 -5 297 -22 51 -27 87 -64 128 -131 20 -33 43 -65 52 -72
43 -34 123 8 123 64 0 59 -109 211 -187 260 -93 59 -121 63 -468 63 l-319 0
-24 -25z"/>
<path d="M985 2695 c-16 -15 -25 -36 -25 -55 0 -19 9 -40 25 -55 23 -24 31
-25 135 -25 104 0 112 1 135 25 16 15 25 36 25 55 0 19 -9 40 -25 55 -23 24
-31 25 -135 25 -104 0 -112 -1 -135 -25z"/>
<path d="M2505 2695 c-16 -15 -25 -36 -25 -55 0 -19 9 -40 25 -55 23 -24 31
-25 135 -25 104 0 112 1 135 25 16 15 25 36 25 55 0 19 -9 40 -25 55 -23 24
-31 25 -135 25 -104 0 -112 -1 -135 -25z"/>
</g>
</svg>
